<svg xmlns="http://www.w3.org/2000/svg" width="800" height="500"><defs><style type="text/css"><![CDATA[ 
.axis path,
.axis line,
.legend rect {
  fill: none;
  stroke: #ccc;
  stroke-width: 1px;
}

/* hide the zero tick mark */
.y-axis .tick:first-of-type text {
  opacity: 0;
}

/* highlight January tick marks */
.x-axis .tick:not(:nth-of-type(12n+1)) text {
  opacity: 0.5;
}

/* hide every second month tick mark */
.x-axis .tick:nth-of-type(2n) text {
  opacity: 0;
}

.num-fixtures {
  fill: none;
  stroke: #2196f3;
  stroke-width: 2px;
}

.legend rect {
  fill: #fff;
}
 ]]></style></defs><g transform="translate(50, 20)"><g class="axis x-axis" transform="translate(0, 450)" fill="none" font-size="10" font-family="sans-serif" text-anchor="middle"><path class="domain" stroke="currentColor" d="M0.5,0.5H730.5"></path><g class="tick" opacity="1" transform="translate(0.5,0)"><line stroke="currentColor" y2="-450"></line><text fill="currentColor" y="3" dy="0.71em">01/17</text></g><g class="tick" opacity="1" transform="translate(23.901266749967686,0)"><line stroke="currentColor" y2="-450"></line><text fill="currentColor" y="3" dy="0.71em">02/17</text></g><g class="tick" opacity="1" transform="translate(45.03789478219656,0)"><line stroke="currentColor" y2="-450"></line><text fill="currentColor" y="3" dy="0.71em">03/17</text></g><g class="tick" opacity="1" transform="translate(68.40770821664009,0)"><line stroke="currentColor" y2="-450"></line><text fill="currentColor" y="3" dy="0.71em">04/17</text></g><g class="tick" opacity="1" transform="translate(91.05409539402817,0)"><line stroke="currentColor" y2="-450"></line><text fill="currentColor" y="3" dy="0.71em">05/17</text></g><g class="tick" opacity="1" transform="translate(114.45536214399586,0)"><line stroke="currentColor" y2="-450"></line><text fill="currentColor" y="3" dy="0.71em">06/17</text></g><g class="tick" opacity="1" transform="translate(137.10174932138395,0)"><line stroke="currentColor" y2="-450"></line><text fill="currentColor" y="3" dy="0.71em">07/17</text></g><g class="tick" opacity="1" transform="translate(160.50301607135162,0)"><line stroke="currentColor" y2="-450"></line><text fill="currentColor" y="3" dy="0.71em">08/17</text></g><g class="tick" opacity="1" transform="translate(183.9042828213193,0)"><line stroke="currentColor" y2="-450"></line><text fill="currentColor" y="3" dy="0.71em">09/17</text></g><g class="tick" opacity="1" transform="translate(206.5506699987074,0)"><line stroke="currentColor" y2="-450"></line><text fill="currentColor" y="3" dy="0.71em">10/17</text></g><g class="tick" opacity="1" transform="translate(229.98339006419926,0)"><line stroke="currentColor" y2="-450"></line><text fill="currentColor" y="3" dy="0.71em">11/17</text></g><g class="tick" opacity="1" transform="translate(252.6297772415873,0)"><line stroke="currentColor" y2="-450"></line><text fill="currentColor" y="3" dy="0.71em">12/17</text></g><g class="tick" opacity="1" transform="translate(276.031043991555,0)"><line stroke="currentColor" y2="-450"></line><text fill="currentColor" y="3" dy="0.71em">01/18</text></g><g class="tick" opacity="1" transform="translate(299.4323107415227,0)"><line stroke="currentColor" y2="-450"></line><text fill="currentColor" y="3" dy="0.71em">02/18</text></g><g class="tick" opacity="1" transform="translate(320.5689387737516,0)"><line stroke="currentColor" y2="-450"></line><text fill="currentColor" y="3" dy="0.71em">03/18</text></g><g class="tick" opacity="1" transform="translate(343.9387522081951,0)"><line stroke="currentColor" y2="-450"></line><text fill="currentColor" y="3" dy="0.71em">04/18</text></g><g class="tick" opacity="1" transform="translate(366.5851393855832,0)"><line stroke="currentColor" y2="-450"></line><text fill="currentColor" y="3" dy="0.71em">05/18</text></g><g class="tick" opacity="1" transform="translate(389.9864061355509,0)"><line stroke="currentColor" y2="-450"></line><text fill="currentColor" y="3" dy="0.71em">06/18</text></g><g class="tick" opacity="1" transform="translate(412.632793312939,0)"><line stroke="currentColor" y2="-450"></line><text fill="currentColor" y="3" dy="0.71em">07/18</text></g><g class="tick" opacity="1" transform="translate(436.03406006290663,0)"><line stroke="currentColor" y2="-450"></line><text fill="currentColor" y="3" dy="0.71em">08/18</text></g><g class="tick" opacity="1" transform="translate(459.43532681287434,0)"><line stroke="currentColor" y2="-450"></line><text fill="currentColor" y="3" dy="0.71em">09/18</text></g><g class="tick" opacity="1" transform="translate(482.0817139902624,0)"><line stroke="currentColor" y2="-450"></line><text fill="currentColor" y="3" dy="0.71em">10/18</text></g><g class="tick" opacity="1" transform="translate(505.5144340557542,0)"><line stroke="currentColor" y2="-450"></line><text fill="currentColor" y="3" dy="0.71em">11/18</text></g><g class="tick" opacity="1" transform="translate(528.1608212331423,0)"><line stroke="currentColor" y2="-450"></line><text fill="currentColor" y="3" dy="0.71em">12/18</text></g><g class="tick" opacity="1" transform="translate(551.56208798311,0)"><line stroke="currentColor" y2="-450"></line><text fill="currentColor" y="3" dy="0.71em">01/19</text></g><g class="tick" opacity="1" transform="translate(574.9633547330777,0)"><line stroke="currentColor" y2="-450"></line><text fill="currentColor" y="3" dy="0.71em">02/19</text></g><g class="tick" opacity="1" transform="translate(596.0999827653065,0)"><line stroke="currentColor" y2="-450"></line><text fill="currentColor" y="3" dy="0.71em">03/19</text></g><g class="tick" opacity="1" transform="translate(619.4697961997501,0)"><line stroke="currentColor" y2="-450"></line><text fill="currentColor" y="3" dy="0.71em">04/19</text></g><g class="tick" opacity="1" transform="translate(642.1161833771382,0)"><line stroke="currentColor" y2="-450"></line><text fill="currentColor" y="3" dy="0.71em">05/19</text></g><g class="tick" opacity="1" transform="translate(665.5174501271059,0)"><line stroke="currentColor" y2="-450"></line><text fill="currentColor" y="3" dy="0.71em">06/19</text></g><g class="tick" opacity="1" transform="translate(688.163837304494,0)"><line stroke="currentColor" y2="-450"></line><text fill="currentColor" y="3" dy="0.71em">07/19</text></g><g class="tick" opacity="1" transform="translate(711.5651040544616,0)"><line stroke="currentColor" y2="-450"></line><text fill="currentColor" y="3" dy="0.71em">08/19</text></g></g><g class="axis y-axis" fill="none" font-size="10" font-family="sans-serif" text-anchor="end"><path class="domain" stroke="currentColor" d="M0.5,450.5V0.5"></path><g class="tick" opacity="1" transform="translate(0,450.5)"><line stroke="currentColor" x2="730"></line><text fill="currentColor" x="-3" dy="0.32em">0</text></g><g class="tick" opacity="1" transform="translate(0,381.2692307692308)"><line stroke="currentColor" x2="730"></line><text fill="currentColor" x="-3" dy="0.32em">50</text></g><g class="tick" opacity="1" transform="translate(0,312.03846153846155)"><line stroke="currentColor" x2="730"></line><text fill="currentColor" x="-3" dy="0.32em">100</text></g><g class="tick" opacity="1" transform="translate(0,242.8076923076923)"><line stroke="currentColor" x2="730"></line><text fill="currentColor" x="-3" dy="0.32em">150</text></g><g class="tick" opacity="1" transform="translate(0,173.57692307692304)"><line stroke="currentColor" x2="730"></line><text fill="currentColor" x="-3" dy="0.32em">200</text></g><g class="tick" opacity="1" transform="translate(0,104.34615384615381)"><line stroke="currentColor" x2="730"></line><text fill="currentColor" x="-3" dy="0.32em">250</text></g><g class="tick" opacity="1" transform="translate(0,35.115384615384585)"><line stroke="currentColor" x2="730"></line><text fill="currentColor" x="-3" dy="0.32em">300</text></g></g><path class="num-fixtures" d="M14.374165194536602,448.61538461538464L14.374165194536602,447.2307692307692L14.374165194536602,445.84615384615387L14.374165194536602,444.46153846153845L14.374165194536602,443.0769230769231L16.63880391227541,441.6923076923077L17.393683484855014,440.3076923076923L40.7949502348227,438.9230769230769L40.7949502348227,437.53846153846155L40.7949502348227,436.15384615384613L40.7949502348227,434.7692307692308L40.7949502348227,433.38461538461536L40.7949502348227,432L40.7949502348227,430.61538461538464L40.7949502348227,429.2307692307692L74.00965142832523,427.84615384615387L80.80356758154164,426.46153846153845L89.10724287991727,425.0769230769231L98.16579775087251,423.6923076923077L101.94019561377051,422.3076923076923L107.22435262182773,420.9230769230769L107.22435262182773,419.53846153846155L107.97923219440734,418.15384615384613L107.97923219440734,416.7692307692308L107.97923219440734,415.38461538461536L107.97923219440734,414L107.97923219440734,412.61538461538464L109.48899133956654,411.2307692307692L141.94881296048948,409.84615384615387L146.4780903959671,408.46153846153845L148.7427291137059,407.0769230769231L148.7427291137059,405.6923076923077L148.7427291137059,404.3076923076923L154.0268861217631,402.9230769230769L160.06592270239992,401.53846153846155L161.57568184755914,400.15384615384613L161.57568184755914,398.7692307692308L163.08544099271836,397.38461538461536L163.84032056529793,396L164.59520013787755,394.61538461538464L164.59520013787755,393.2307692307692L164.59520013787755,391.84615384615387L165.35007971045715,390.46153846153845L165.35007971045715,389.0769230769231L165.35007971045715,387.6923076923077L166.10495928303675,386.3076923076923L171.38911629109398,384.9230769230769L177.4281528717308,383.53846153846155L185.7318281701064,382.1538461538462L185.7318281701064,380.7692307692308L187.99646688784526,379.38461538461536L187.99646688784526,378L188.75134646042483,376.61538461538464L188.75134646042483,375.2307692307692L189.50622603300442,373.8461538461538L191.01598517816365,372.46153846153845L191.01598517816365,371.0769230769231L191.01598517816365,369.6923076923077L197.05502175880045,368.3076923076923L197.05502175880045,366.9230769230769L197.05502175880045,365.53846153846155L214.41725192813132,364.15384615384613L215.17213150071095,362.7692307692308L217.43677021844974,361.38461538461536L226.495325089405,360L240.83803696841744,358.61538461538464L240.83803696841744,357.2307692307692L241.592916540997,355.84615384615387L241.592916540997,354.46153846153845L244.61243483131543,353.0769230769231L251.40635098453188,351.6923076923077L256.69050799258906,350.3076923076923L256.69050799258906,348.9230769230769L256.69050799258906,347.53846153846155L260.4649058554871,346.15384615384613L260.4649058554871,344.7692307692308L260.4649058554871,343.38461538461536L261.9746650006463,342L267.25882200870353,340.61538461538464L270.2783402990219,339.2307692307692L272.54297901676074,337.84615384615387L274.80761773449956,336.46153846153845L275.5624973070792,335.0769230769231L275.5624973070792,333.6923076923077L275.5624973070792,332.3076923076923L278.5820155973976,330.9230769230769L280.8466543151364,329.53846153846155L288.3954500409324,328.1538461538462L292.92472747641,326.7692307692308L293.6796070489896,325.38461538461536L297.45400491188764,324L297.45400491188764,322.61538461538464L297.45400491188764,321.2307692307692L299.71864362962646,319.8461538461538L299.71864362962646,318.46153846153845L299.71864362962646,317.0769230769231L300.4735232022061,315.69230769230774L300.4735232022061,314.3076923076923L301.22840277478565,312.9230769230769L301.9832823473652,311.53846153846155L302.73816191994484,310.1538461538462L302.73816191994484,308.7692307692308L302.73816191994484,307.38461538461536L304.24792106510404,306L308.02231892800205,304.61538461538464L308.02231892800205,303.2307692307693L308.02231892800205,301.8461538461538L309.5320780731613,300.46153846153845L309.5320780731613,299.0769230769231L311.79671679090006,297.6923076923077L312.5515963634797,296.3076923076923L326.8943082424921,294.9230769230769L330.66870610539013,293.53846153846155L330.66870610539013,292.1538461538462L339.72726097634535,290.7692307692308L340.482140548925,289.38461538461536L341.2370201215046,288L341.9918996940842,286.61538461538464L341.9918996940842,285.2307692307692L345.76629755698224,283.8461538461538L345.76629755698224,282.46153846153845L349.54069541988025,281.0769230769231L359.35412986341504,279.6923076923077L360.10900943599466,278.30769230769226L385.02003533112156,276.9230769230769L386.5297944762808,275.53846153846155L388.03955362143995,274.1538461538462L388.03955362143995,272.7692307692308L398.6078676375544,271.38461538461536L398.6078676375544,270L398.6078676375544,268.61538461538464L399.362747210134,267.2307692307692L399.362747210134,265.8461538461538L400.8725063552932,264.46153846153845L412.1956999439873,263.0769230769231L424.2737731052609,261.69230769230774L425.7835322504201,260.3076923076923L427.29329139557933,258.9230769230769L431.06768925847734,257.53846153846155L431.06768925847734,256.15384615384613L438.61648498427337,254.76923076923077L439.37136455685294,253.3846153846154L442.3908828471714,252L449.93967857296735,250.6153846153846L462.77263130682064,249.23076923076923L466.54702916971866,247.84615384615387L467.3019087422982,246.46153846153845L468.05678831487785,245.07692307692307L468.8116678874574,243.69230769230768L468.8116678874574,242.3076923076923L468.8116678874574,240.92307692307693L471.07630660519624,239.53846153846155L474.85070446809425,238.15384615384616L476.36046361325344,236.76923076923077L477.1153431858331,235.3846153846154L485.4190184842087,234L488.4385367745271,232.6153846153846L489.9482959196863,231.23076923076923L492.96781421000475,229.84615384615384L493.7226937825843,228.46153846153845L499.0068507906416,227.0769230769231L499.76173036322115,225.6923076923077L505.04588737127835,224.30769230769232L505.04588737127835,222.92307692307693L505.8007669438579,221.53846153846155L505.8007669438579,220.15384615384616L505.8007669438579,218.76923076923077L505.8007669438579,217.3846153846154L509.57516480675594,216L510.3300443793356,214.6153846153846L510.3300443793356,213.23076923076923L511.0849239519152,211.8461538461538L512.5946830970744,210.46153846153848L512.5946830970744,209.0769230769231L512.5946830970744,207.6923076923077L512.5946830970744,206.30769230769232L514.1044422422336,204.92307692307693L521.6532379680297,203.53846153846155L523.9178766857684,202.15384615384613L524.672756258348,200.76923076923075L524.672756258348,199.38461538461536L525.4276358309277,197.99999999999997L525.4276358309277,196.61538461538464L529.9569132664053,195.23076923076925L532.9764315567237,193.84615384615387L534.4861907018828,192.46153846153845L534.4861907018828,191.0769230769231L535.2410702744625,189.69230769230768L535.2410702744625,188.30769230769232L535.9959498470421,186.9230769230769L535.9959498470421,185.53846153846155L541.2801068550993,184.15384615384613L551.8484208712138,182.76923076923077L551.8484208712138,181.38461538461542L551.8484208712138,180L551.8484208712138,178.61538461538464L551.8484208712138,177.23076923076923L551.8484208712138,175.84615384615387L551.8484208712138,174.46153846153845L551.8484208712138,173.07692307692304L554.1130595889526,171.69230769230768L554.1130595889526,170.30769230769232L556.3776983066914,168.92307692307696L560.9069757421689,167.53846153846155L561.6618553147487,166.1538461538462L561.6618553147487,164.76923076923077L562.4167348873282,163.38461538461536L566.1911327502262,162L566.1911327502262,160.61538461538458L578.2692059114999,159.23076923076923L578.2692059114999,157.8461538461538L578.2692059114999,156.4615384615385L579.7789650566591,155.0769230769231L579.7789650566591,153.69230769230768L579.7789650566591,152.30769230769232L579.7789650566591,150.9230769230769L585.0631220647163,149.53846153846155L585.8180016372959,148.15384615384613L587.3277607824551,146.76923076923077L589.5923995001939,145.38461538461536L589.5923995001939,144L594.1216769356715,142.61538461538464L594.1216769356715,141.23076923076923L594.1216769356715,139.84615384615387L596.3863156534104,138.46153846153845L597.1411952259899,137.0769230769231L597.8960747985695,135.69230769230768L597.8960747985695,134.30769230769232L597.8960747985695,132.9230769230769L599.4058339437287,131.53846153846155L599.4058339437287,130.15384615384613L599.4058339437287,128.76923076923077L599.4058339437287,127.38461538461542L599.4058339437287,126L600.1607135163084,124.61538461538464L605.4448705243656,123.23076923076923L605.4448705243656,121.84615384615387L606.9546296695247,120.46153846153845L606.9546296695247,119.07692307692304L609.2192683872636,117.69230769230768L611.4839071050023,116.30769230769226L616.7680641130596,114.92307692307696L616.7680641130596,113.53846153846155L616.7680641130596,112.15384615384619L619.787582403378,110.76923076923077L619.787582403378,109.38461538461536L619.787582403378,108L622.0522211211169,106.61538461538458L622.8071006936964,105.23076923076923L623.561980266276,103.84615384615381L623.561980266276,102.46153846153845L623.561980266276,101.0769230769231L623.561980266276,99.69230769230774L623.561980266276,98.30769230769232L623.561980266276,96.9230769230769L623.561980266276,95.53846153846155L625.0717394114351,94.15384615384613L629.6010168469129,92.76923076923077L629.6010168469129,91.38461538461536L629.6010168469129,90L629.6010168469129,88.61538461538464L629.6010168469129,87.23076923076923L636.3949330001292,85.84615384615387L643.1888491533457,84.46153846153845L643.9437287259252,83.0769230769231L643.9437287259252,81.69230769230768L646.9632470162437,80.30769230769232L646.9632470162437,78.9230769230769L650.7376448791417,77.53846153846155L651.4925244517214,76.15384615384613L652.247404024301,74.76923076923077L653.7571631694601,73.38461538461542L653.7571631694601,72L656.7766814597785,70.61538461538464L663.5705976129949,69.23076923076923L663.5705976129949,67.84615384615387L663.5705976129949,66.46153846153845L666.5901159033134,65.07692307692304L670.3645137662114,63.69230769230768L670.3645137662114,62.307692307692264L670.3645137662114,60.92307692307696L677.1584299194278,59.53846153846155L681.6877073549055,58.15384615384619L693.765780516179,56.769230769230774L695.2755396613383,55.384615384615415L695.2755396613383,54L695.2755396613383,52.615384615384585L696.7852988064975,51.230769230769226L700.5596966693955,49.84615384615381L700.5596966693955,48.46153846153845L702.0694558145547,47.076923076923094L703.5792149597139,45.692307692307736L703.5792149597139,44.30769230769232L703.5792149597139,42.923076923076906L703.5792149597139,41.53846153846155L703.5792149597139,40.15384615384613L703.5792149597139,38.769230769230774L703.5792149597139,37.38461538461536L703.5792149597139,36L703.5792149597139,34.615384615384585L703.5792149597139,33.230769230769226L703.5792149597139,31.846153846153868L705.0889741048732,30.461538461538453L705.0889741048732,29.076923076923094L706.5987332500323,27.69230769230768L706.5987332500323,26.30769230769232L708.8633719677712,24.923076923076906L710.3731311129303,23.538461538461547L710.3731311129303,22.153846153846132L710.3731311129303,20.769230769230774L716.4121676935672,19.384615384615415L726.225602137102,18L726.225602137102,16.61538461538464L726.225602137102,15.230769230769226L726.225602137102,13.846153846153868L726.225602137102,12.461538461538453L726.225602137102,11.076923076923094L726.9804817096815,9.69230769230768L726.9804817096815,8.307692307692264L730,6.923076923076906L730,5.538461538461547L730,4.153846153846189L730,2.7692307692307736L730,1.3846153846154152L730,0"></path><g class="legend" transform="translate(20, 20)"><rect x="-10" y="-14" width="240" height="45"></rect><path class="num-fixtures" d="M 0,0 H 20"></path><text x="30" y="0" style="font-size: 14px;" alignment-baseline="middle">Number of fixtures in OFL: 325</text><text x="30" y="20" style="font-size: 12px;" alignment-baseline="middle">Last updated: 2019-08-26</text></g></g></svg>